<svg width="24" height="24" viewBox="0 0 24 24" fill="none" xmlns="http://www.w3.org/2000/svg">
<path d="M11.0115 6.06C11.4645 6.6825 11.691 7.425 11.691 8.2935C11.691 9.186 11.4645 9.906 11.0055 10.449C10.7475 10.7505 10.371 11.0295 9.873 11.28C10.629 11.553 11.199 11.9835 11.5875 12.5715C11.9715 13.1595 12.165 13.875 12.165 14.715C12.165 15.582 11.9445 16.3605 11.5035 17.0475C11.2245 17.502 10.8735 17.8875 10.4535 18.198C9.95714 18.5655 9.38452 18.8167 8.778 18.933C8.133 19.065 7.4355 19.1295 6.6825 19.1295H0V4.5H7.167C8.976 4.527 10.2555 5.046 11.0115 6.06ZM2.9565 7.041V10.269H6.5625C7.2045 10.269 7.728 10.1475 8.1315 9.906C8.532 9.6645 8.7345 9.2355 8.7345 8.622C8.7345 7.938 8.469 7.4895 7.938 7.269C7.479 7.1175 6.894 7.041 6.1845 7.041H2.9565ZM2.9565 12.69V16.5915H6.558C7.2015 16.5915 7.704 16.506 8.061 16.3335C8.712 16.0125 9.036 15.4065 9.036 14.5065C9.036 13.743 8.7225 13.221 8.0925 12.936C7.7385 12.7785 7.2435 12.6945 6.6075 12.69H2.9565ZM21.1305 8.532C21.897 8.8695 22.527 9.4035 23.0235 10.1325C23.4765 10.776 23.7675 11.5215 23.8995 12.369C23.9775 12.864 24.0075 13.5825 23.9955 14.517H16.005C16.053 15.6015 16.431 16.3635 17.154 16.7985C17.592 17.07 18.117 17.2065 18.7365 17.2065C19.3875 17.2065 19.9185 17.0415 20.3265 16.7115C20.5515 16.5315 20.748 16.284 20.9175 15.9675H23.8455C23.7675 16.608 23.412 17.2605 22.7835 17.9235C21.801 18.9735 20.4255 19.5 18.657 19.5C17.196 19.5 15.909 19.0575 14.7945 18.1695C13.6755 17.283 13.119 15.8385 13.119 13.839C13.119 11.964 13.623 10.5255 14.6295 9.525C15.639 8.5275 16.944 8.025 18.5505 8.025C19.5075 8.0235 20.367 8.193 21.1305 8.532ZM16.842 10.9755C16.437 11.388 16.182 11.946 16.077 12.6495H21.0195C20.967 11.898 20.7105 11.3295 20.256 10.938C19.7955 10.5495 19.23 10.356 18.5535 10.356C17.82 10.3575 17.247 10.5645 16.842 10.9755ZM15.336 7.0035H21.6915V5.1825H15.336V7.0035Z" fill="#1976D2"/>
</svg>
