<svg id="Icon_awesome-behance-square" data-name="Icon awesome-behance-square" xmlns="http://www.w3.org/2000/svg" width="31.5" height="31.5" viewBox="0 0 31.5 31.5">
  <path id="Icon_awesome-behance-square-2" data-name="Icon awesome-behance-square" d="M13.113,20.6c0,1.357-.984,1.786-2.194,1.786H7.748v-3.72h3.234C12.291,18.675,13.113,19.216,13.113,20.6Zm-.541-5.787c0-1.245-.963-1.54-2.032-1.54H7.755v3.15h3c1.062,0,1.814-.464,1.814-1.61Zm9.3,1.631a2.1,2.1,0,0,0-2.229,2.088h4.373A2,2,0,0,0,21.874,16.446ZM31.5,5.625v24.75a3.376,3.376,0,0,1-3.375,3.375H3.375A3.376,3.376,0,0,1,0,30.375V5.625A3.376,3.376,0,0,1,3.375,2.25h24.75A3.376,3.376,0,0,1,31.5,5.625ZM19.1,13.008h5.47V11.679H19.1ZM16.08,20.763a3.5,3.5,0,0,0-2.461-3.628,2.625,2.625,0,0,0,1.842-2.6c0-2.686-2-3.34-4.317-3.34H4.781v13.5h6.546C13.781,24.68,16.08,23.505,16.08,20.763Zm10.638-1.041c0-2.89-1.695-5.3-4.753-5.3a4.907,4.907,0,0,0-5,5.175,4.764,4.764,0,0,0,5,5.133,4.359,4.359,0,0,0,4.577-3.291h-2.37a2.224,2.224,0,0,1-2.123,1.273,2.206,2.206,0,0,1-2.4-2.482H26.7C26.7,20.067,26.719,19.891,26.719,19.723Z" transform="translate(0 -2.25)" fill="#ebe9e9"/>
</svg>
