<svg id="Icon_awesome-dribbble" data-name="Icon awesome-dribbble" xmlns="http://www.w3.org/2000/svg" width="34.875" height="34.875" viewBox="0 0 34.875 34.875">
  <defs>
<style>
#Icon_awesome-dribbble-2:hover {
        fill: #222121;
      }
</style>
  </defs>
  <path id="Icon_awesome-dribbble-2" data-name="Icon awesome-dribbble" d="M18,.563A17.438,17.438,0,1,0,35.438,18,17.457,17.457,0,0,0,18,.563ZM29.529,8.6a14.823,14.823,0,0,1,3.363,9.278A34.807,34.807,0,0,0,22.521,17.4c-.4-.987-.786-1.856-1.309-2.926A19.84,19.84,0,0,0,29.529,8.6ZM27.873,6.881c-.268.382-2.51,3.4-7.806,5.38A79.5,79.5,0,0,0,14.51,3.542,14.856,14.856,0,0,1,27.873,6.881ZM11.668,4.544a95.036,95.036,0,0,1,5.522,8.614A55.556,55.556,0,0,1,3.42,14.972,14.949,14.949,0,0,1,11.668,4.544ZM3.106,18.023c0-.152,0-.3.008-.455a54.942,54.942,0,0,0,15.307-2.12c.426.834.834,1.682,1.208,2.528A23.07,23.07,0,0,0,6.935,27.981,14.835,14.835,0,0,1,3.106,18.023Zm5.752,11.75c1.556-3.18,5.778-7.286,11.783-9.334a61.911,61.911,0,0,1,3.177,11.295,14.864,14.864,0,0,1-14.96-1.96Zm17.464.6a64.285,64.285,0,0,0-2.893-10.62,21.861,21.861,0,0,1,9.278.637,14.92,14.92,0,0,1-6.384,9.983Z" transform="translate(-0.563 -0.563)" fill="#ebe9e9"/>
</svg>
