<svg id="Icon_awesome-pinterest" data-name="Icon awesome-pinterest" xmlns="http://www.w3.org/2000/svg" width="34.875" height="34.875" viewBox="0 0 34.875 34.875">
  <path id="Icon_awesome-pinterest-2" data-name="Icon awesome-pinterest" d="M34.875,18a17.44,17.44,0,0,1-22.6,16.657,19.6,19.6,0,0,0,2.166-4.57c.211-.816,1.083-4.148,1.083-4.148a4.67,4.67,0,0,0,3.994,2c5.259,0,9.049-4.837,9.049-10.849,0-5.759-4.7-10.069-10.751-10.069-7.523,0-11.524,5.048-11.524,10.554,0,2.559,1.364,5.745,3.537,6.757.33.155.506.084.584-.232.056-.239.352-1.427.485-1.976a.522.522,0,0,0-.12-.5,6.867,6.867,0,0,1-1.287-3.98,7.546,7.546,0,0,1,7.875-7.566c4.282,0,7.284,2.918,7.284,7.095,0,4.718-2.384,7.987-5.484,7.987a2.529,2.529,0,0,1-2.58-3.15c.492-2.074,1.441-4.31,1.441-5.808a2.19,2.19,0,0,0-2.208-2.454c-1.751,0-3.157,1.807-3.157,4.233a6.283,6.283,0,0,0,.52,2.587s-1.723,7.3-2.039,8.663a16.879,16.879,0,0,0-.063,5.006A17.439,17.439,0,1,1,34.875,18Z" transform="translate(0 -0.563)" fill="#ebe9e9"/>
</svg>
